<?xml version="1.0" encoding="utf-8"?>
<!-- Generator: Adobe Illustrator 26.0.1, SVG Export Plug-In . SVG Version: 6.00 Build 0)  -->
<svg version="1.1" id="Layer_1" xmlns="http://www.w3.org/2000/svg" xmlns:xlink="http://www.w3.org/1999/xlink" x="0px" y="0px"
	 viewBox="0 0 606.64 199.71" style="enable-background:new 0 0 606.64 199.71;" xml:space="preserve">
<style type="text/css">
	.st0{fill:#1C3556;}
	.st1{fill:none;stroke:#1C3556;stroke-miterlimit:10;}
	.st2{fill:#ED1C24;}
	.st3{fill:none;stroke:#ED1C24;stroke-miterlimit:10;}
	.st4{fill:none;}
	.st5{font-family:'MyriadPro-Regular';}
	.st6{font-size:24.3543px;}
	.st7{font-family:'Calibri';}
	.st8{font-size:22.9962px;}
</style>
<g id="XMLID_00000086669047285450054660000015975613256479665032_">
	<g>
		<polygon class="st0" points="236.82,34.79 188.8,112.48 169.56,112.67 217.58,34.98 		"/>
		<polygon class="st0" points="187.57,5.85 110.85,129.98 110.69,129.89 100.86,113.44 167.23,6.05 		"/>
		<polygon class="st0" points="143.63,6.28 89.39,94.04 78.25,73.04 119.37,6.52 		"/>
	</g>
	<g>
		<polyline class="st1" points="187.57,5.85 110.85,129.98 110.73,130.16 		"/>
		<line class="st1" x1="167.23" y1="6.05" x2="100.86" y2="113.44"/>
		<line class="st1" x1="143.63" y1="6.28" x2="89.39" y2="94.04"/>
		<polyline class="st1" points="119.37,6.52 78.25,73.04 77.89,73.63 		"/>
		<line class="st1" x1="217.58" y1="34.98" x2="169.56" y2="112.67"/>
		<line class="st1" x1="236.82" y1="34.79" x2="188.8" y2="112.48"/>
		<line class="st1" x1="217.58" y1="34.98" x2="236.82" y2="34.79"/>
		<line class="st1" x1="169.56" y1="112.67" x2="188.8" y2="112.48"/>
		<polyline class="st1" points="78.04,72.64 78.25,73.04 89.39,94.04 		"/>
		<line class="st1" x1="100.86" y1="113.44" x2="110.69" y2="129.89"/>
		<line class="st1" x1="167.23" y1="6.05" x2="187.57" y2="5.85"/>
		<line class="st1" x1="119.37" y1="6.52" x2="143.63" y2="6.28"/>
	</g>
</g>
<g id="XMLID_00000104674805953062078220000012871429759136087487_">
	<g>
		<polygon class="st2" points="228.48,5.55 111.61,194.65 1.11,7.68 32.12,7.38 112.28,143.01 197.11,5.75 197.31,5.75 228.31,5.45 
					"/>
		<polygon class="st2" points="93.38,6.77 64.98,52.74 51.22,29.45 65.05,7.06 		"/>
	</g>
	<g>
		<line class="st3" x1="1.11" y1="7.68" x2="111.61" y2="194.65"/>
		<line class="st3" x1="32.12" y1="7.38" x2="112.28" y2="143.01"/>
		<line class="st3" x1="51.22" y1="29.45" x2="64.98" y2="52.74"/>
		<polyline class="st3" points="228.55,5.44 228.48,5.55 111.61,194.65 		"/>
		<line class="st3" x1="197.11" y1="5.75" x2="112.28" y2="143.01"/>
		<line class="st3" x1="65.05" y1="7.06" x2="51.22" y2="29.45"/>
		<line class="st3" x1="93.38" y1="6.77" x2="64.98" y2="52.74"/>
		<line class="st3" x1="1.11" y1="7.68" x2="32.12" y2="7.38"/>
		<line class="st3" x1="197.31" y1="5.75" x2="228.31" y2="5.45"/>
		<line class="st3" x1="65.05" y1="7.06" x2="93.38" y2="6.77"/>
	</g>
</g>
<g transform="translate(0.000000,458.000000) scale(0.100000,-0.100000)">
	<g id="XMLID_00000033345528688116276660000007357820337092168577_">
		<g>
			<path class="st0" d="M5983.71,3966.66l37.46-78.83l-107.09-0.81c-105.6-0.95-107.23-0.95-117.1-5
				c-16.77-6.76-28.12-20.01-33.8-39.48c-2.97-10.01-3.38-26.37-3.92-212.43l-0.54-201.74h-99.65h-99.65l0.68,212.7
				c0.81,227.43,0.54,220.67,10.01,255.15c23.26,84.24,94.25,140.9,187,148.2c9.47,0.95,55.84,1.49,103.17,1.35l85.73-0.14
				L5983.71,3966.66z"/>
			<path class="st0" d="M5506.93,3786.96c3.11-25.29,1.35-69.1-3.38-92.08c-18.12-88.84-74.64-167.13-156.99-217.56
				c-35.29-21.5-88.3-42.73-126.83-50.57c-32.59-6.49-43.68-7.44-91.14-7.44c-50.57,0-68.55,2.03-106.96,11.63
				c-48.27,12.3-98.84,36.51-137.79,65.85c-132.38,99.79-171.46,262.73-96,401.46c57.74,106.69,180.24,180.11,313.16,187.95
				c23.93,1.49,30.83,1.22,64.36-0.81c50.17-2.97,108.31-19.47,156.18-44.35C5425.94,3986.67,5494.9,3892.43,5506.93,3786.96z
				 M5292.34,3703.4c6.35,20.82,8.25,61.25,3.92,82.08c-14.74,71.26-69.37,125.48-138.06,137.52c-15.14,2.7-48.54,2.16-63.55-1.08
				c-63.42-13.52-114.39-64.36-130.89-130.62c-4.33-17.04-4.33-61.79,0-79.1c15.82-62.61,63.15-111.82,123.59-128.32
				c21.5-5.68,63.15-5.68,83.02,0c21.09,6.08,35.02,12.44,51.11,23.12C5255.56,3629.57,5280.44,3663.37,5292.34,3703.4z"/>
			<path class="st0" d="M4704.29,3966.12l37.32-78.29l-124.4-0.81l-124.26-0.95l-0.54-107.9c-0.27-59.23,0.27-116.02,1.22-125.89
				c2.84-31.78,12.58-48.41,33.67-58.95l9.06-4.46l91.27-0.54l91-0.54v-79.78v-79.78l-121.02,0.68
				c-105.2,0.54-122.64,1.08-133.73,3.65c-60.71,14.47-107.5,45.16-135.89,88.97c-15.82,24.2-24.47,46.24-30.96,79.1
				c-2.97,14.06-3.25,41.24-3.79,332.23l-0.81,316.68h99.65H4492l0.41-101.95l0.54-101.95l86.94-0.68l86.94-0.54L4704.29,3966.12z"
				/>
			<path class="st0" d="M4213.04,3966.66l37.46-78.83l-118.86-1.08c-113.85-0.81-119.8-1.08-133.73-4.87
				c-30.83-7.98-52.19-19.74-70.85-38.81c-20.28-20.42-31.51-40.16-38.67-67.34c-18.66-73.29,16.36-146.71,83.56-175.38
				c27.99-11.9,34.34-12.44,150.77-12.44h104.66v-79.78v-79.78h-115.61c-122.24,0-140.35,0.95-178.08,8.38
				c-128.46,25.56-221.62,118.59-242.85,242.17c-11.76,69.64-2.57,134.27,28.12,196.33c50.44,101.41,149.01,161.99,275.44,169.16
				c14.06,0.95,60.44,1.49,103.17,1.35l77.75-0.14L4213.04,3966.66z"/>
			<path class="st0" d="M3623.77,3734.77v-306.4h-99.65h-99.65v305.05c0,167.94,0.54,305.86,1.22,306.4
				c0.54,0.68,45.57,1.22,99.65,1.22h98.44V3734.77z"/>
			<path class="st2" d="M3623.77,4163.4v-80.72h-99.65h-99.65v79.37c0,43.68,0.54,80.18,1.22,80.72c0.54,0.68,45.57,1.22,99.65,1.22
				h98.44V4163.4z"/>
			<path class="st0" d="M3362.12,4044.68c2.16-13.25,2.7-24.34,1.89-48c-0.68-26.64-1.62-33.8-6.36-52.06
				c-7.57-29.61-18.12-53.14-41.38-93.03c-11.09-18.8-61.93-105.87-113.04-192.95c-50.84-87.21-102.49-175.51-114.66-196.33
				l-21.91-37.59h-139.41h-139.27l-9.74,20.55c-5.27,11.09-92.08,193.9-193.09,406.33c-100.87,212.43-183.89,387.53-184.3,389.42
				c-0.81,2.84,4.87,2.97,111.69,2.7l112.77-0.54l14.6-30.83c134-282.6,292.07-614.83,293.15-615.91
				c2.3,0,227.57,383.47,234.33,398.75c5.41,12.44,4.19,35.7-3.11,50.03c-6.36,12.85-21.23,27.18-34.75,33.53l-10.55,4.87
				l-94.38,0.54l-94.52,0.54l-36.91,77.07c-20.28,42.32-37.18,78.29-37.59,79.78c-0.54,2.16,18.93,2.43,132.38,2.43
				c136.3,0,159.69-0.81,188.09-7.17C3271.8,4215.46,3345.63,4139.06,3362.12,4044.68z"/>
		</g>
		<g>
		</g>
	</g>
</g>
<rect x="353.02" y="121.66" class="st4" width="253.62" height="50.2"/>
<text transform="matrix(1 0 0 1 353.0188 138.9626)"><tspan x="0" y="0" class="st0 st5 st6">             </tspan><tspan x="67.12" y="0" class="st0 st7 st8">General Trading llc.</tspan></text>
</svg>
